<svg class="svg-icon" style="width: 1em; height: 1em;vertical-align: middle;fill: currentColor;overflow: hidden;" viewBox="0 0 1024 1024" version="1.1" xmlns="http://www.w3.org/2000/svg"><path d="M813.7 210.3l-60.3 60.3c64.5 64.5 100 150.2 100 241.4 0 188.2-153.1 341.3-341.3 341.3S170.7 700.2 170.7 512c0-173.8 130.5-317.6 298.7-338.7v86.2C348.4 279.9 256 385.4 256 512c0 141.2 114.8 256 256 256s256-114.8 256-256c0-68.4-26.6-132.7-75-181l-60.3 60.3c32.2 32.2 50 75.1 50 120.7 0 94.1-76.5 170.7-170.7 170.7S341.3 606.1 341.3 512c0-79.4 54.5-146.3 128-165.3v91.4c-25.5 14.8-42.7 42.3-42.7 73.9 0 47.1 38.2 85.3 85.3 85.3s85.3-38.2 85.3-85.3c0-31.6-17.2-59.1-42.7-73.9V85.3h-85.3v2.1C254 108.9 85.3 291.1 85.3 512c0 235.3 191.4 426.7 426.7 426.7S938.7 747.2 938.7 512c0-113.9-44.4-221.1-125-301.7z"  /></svg>